<svg xmlns="http://www.w3.org/2000/svg" xmlns:xlink="http://www.w3.org/1999/xlink" width="504" zoomAndPan="magnify" viewBox="0 0 378 137.999998" height="184" preserveAspectRatio="xMidYMid meet" version="1.0"><defs><g/><clipPath id="54ca9e2ec0"><path d="M 13.855469 12.394531 L 126.355469 12.394531 L 126.355469 124.894531 L 13.855469 124.894531 Z M 13.855469 12.394531 " clip-rule="nonzero"/></clipPath><clipPath id="ab1322b303"><path d="M 70.105469 12.394531 C 39.039062 12.394531 13.855469 37.578125 13.855469 68.644531 C 13.855469 99.710938 39.039062 124.894531 70.105469 124.894531 C 101.171875 124.894531 126.355469 99.710938 126.355469 68.644531 C 126.355469 37.578125 101.171875 12.394531 70.105469 12.394531 Z M 70.105469 12.394531 " clip-rule="nonzero"/></clipPath><clipPath id="69c2ac98b4"><path d="M 0 0 L 111 0 L 111 137.25 L 0 137.25 Z M 0 0 " clip-rule="nonzero"/></clipPath></defs><rect x="-37.8" width="453.6" fill="#ffffff" y="-13.8" height="165.599997" fill-opacity="1"/><g clip-path="url(#54ca9e2ec0)"><g clip-path="url(#ab1322b303)"><path fill="#000000" d="M 13.855469 12.394531 L 126.355469 12.394531 L 126.355469 124.894531 L 13.855469 124.894531 Z M 13.855469 12.394531 " fill-opacity="1" fill-rule="nonzero"/></g></g><g clip-path="url(#69c2ac98b4)"><path fill="#9f7803" d="M 68.386719 22.589844 L 68.28125 22.589844 L 68.066406 22.59375 L 67.941406 22.59375 L 67.746094 22.597656 L 67.617188 22.601562 L 67.425781 22.605469 L 67.296875 22.609375 L 67.101562 22.617188 L 66.976562 22.621094 L 66.769531 22.628906 L 66.660156 22.632812 L 66.398438 22.644531 L 66.34375 22.648438 L 66.027344 22.664062 L 65.933594 22.671875 L 65.714844 22.683594 L 65.59375 22.691406 C 65.59375 22.691406 65.449219 22.703125 65.398438 22.703125 C 65.355469 22.707031 65.3125 22.710938 65.269531 22.714844 C 65.21875 22.71875 65.132812 22.722656 65.082031 22.730469 C 65.039062 22.730469 64.996094 22.734375 64.953125 22.738281 C 64.898438 22.742188 64.816406 22.75 64.761719 22.753906 C 64.722656 22.757812 64.679688 22.761719 64.636719 22.765625 C 64.582031 22.769531 64.492188 22.777344 64.441406 22.78125 C 64.402344 22.785156 64.363281 22.789062 64.324219 22.792969 C 64.265625 22.800781 64.148438 22.8125 64.097656 22.816406 C 64.070312 22.820312 64.039062 22.820312 64.011719 22.824219 C 63.945312 22.832031 63.765625 22.851562 63.703125 22.855469 C 63.675781 22.859375 63.648438 22.863281 63.621094 22.867188 C 63.570312 22.871094 63.449219 22.886719 63.390625 22.890625 C 63.351562 22.894531 63.3125 22.902344 63.273438 22.90625 C 63.222656 22.910156 63.136719 22.921875 63.082031 22.929688 C 63.039062 22.933594 62.996094 22.941406 62.953125 22.945312 C 62.902344 22.953125 62.824219 22.960938 62.769531 22.96875 C 62.726562 22.972656 62.683594 22.980469 62.640625 22.984375 C 62.585938 22.992188 62.511719 23.003906 62.460938 23.007812 C 62.414062 23.015625 62.371094 23.019531 62.328125 23.027344 C 62.277344 23.035156 62.195312 23.046875 62.144531 23.054688 C 62.101562 23.058594 62.0625 23.066406 62.019531 23.070312 C 61.964844 23.078125 61.867188 23.09375 61.816406 23.101562 C 61.78125 23.105469 61.746094 23.113281 61.714844 23.117188 C 61.644531 23.128906 61.472656 23.15625 61.410156 23.164062 C 61.390625 23.167969 61.367188 23.171875 61.34375 23.175781 C 61.292969 23.183594 61.164062 23.203125 61.105469 23.214844 C 61.066406 23.21875 61.027344 23.226562 60.988281 23.234375 C 60.9375 23.242188 60.851562 23.257812 60.800781 23.265625 C 60.757812 23.273438 60.714844 23.28125 60.671875 23.289062 C 60.621094 23.296875 60.546875 23.308594 60.496094 23.320312 C 60.449219 23.328125 60.40625 23.335938 60.359375 23.34375 C 60.308594 23.351562 60.242188 23.367188 60.191406 23.375 C 60.144531 23.382812 60.101562 23.390625 60.054688 23.402344 C 60.003906 23.410156 59.933594 23.425781 59.882812 23.433594 C 59.839844 23.441406 59.796875 23.449219 59.753906 23.460938 C 59.699219 23.46875 59.621094 23.484375 59.570312 23.496094 C 59.53125 23.503906 59.488281 23.511719 59.449219 23.519531 C 59.390625 23.53125 59.265625 23.558594 59.214844 23.570312 C 59.195312 23.574219 59.167969 23.578125 59.152344 23.582031 C 59.140625 23.585938 59.128906 23.585938 59.117188 23.589844 C 59.070312 23.601562 58.917969 23.632812 58.855469 23.644531 C 58.816406 23.652344 58.777344 23.664062 58.738281 23.671875 C 58.6875 23.683594 58.609375 23.699219 58.554688 23.710938 C 58.511719 23.722656 58.46875 23.730469 58.425781 23.742188 C 58.375 23.753906 58.308594 23.769531 58.257812 23.78125 C 58.210938 23.792969 58.167969 23.800781 58.121094 23.8125 C 58.070312 23.824219 58.007812 23.839844 57.960938 23.851562 C 57.914062 23.863281 57.867188 23.875 57.820312 23.886719 C 57.769531 23.898438 57.707031 23.914062 57.660156 23.925781 C 57.613281 23.9375 57.570312 23.945312 57.523438 23.957031 C 57.472656 23.96875 57.40625 23.988281 57.355469 24 C 57.3125 24.011719 57.269531 24.023438 57.226562 24.03125 C 57.175781 24.046875 57.085938 24.070312 57.035156 24.082031 C 57 24.09375 56.964844 24.101562 56.929688 24.109375 C 56.867188 24.128906 56.714844 24.167969 56.644531 24.1875 C 56.609375 24.195312 56.570312 24.207031 56.53125 24.21875 C 56.480469 24.230469 56.40625 24.253906 56.351562 24.265625 C 56.308594 24.277344 56.265625 24.292969 56.222656 24.304688 C 56.171875 24.316406 56.109375 24.335938 56.058594 24.347656 C 56.015625 24.363281 55.96875 24.375 55.925781 24.386719 C 55.875 24.402344 55.816406 24.417969 55.765625 24.433594 C 55.722656 24.445312 55.675781 24.460938 55.628906 24.472656 C 55.582031 24.488281 55.523438 24.507812 55.472656 24.519531 C 55.429688 24.535156 55.382812 24.546875 55.339844 24.5625 C 55.289062 24.574219 55.222656 24.597656 55.175781 24.609375 C 55.132812 24.625 55.089844 24.636719 55.046875 24.648438 C 54.996094 24.667969 54.917969 24.691406 54.871094 24.707031 C 54.832031 24.71875 54.796875 24.730469 54.757812 24.742188 C 54.695312 24.761719 54.542969 24.8125 54.480469 24.832031 C 54.445312 24.84375 54.414062 24.855469 54.378906 24.863281 C 54.332031 24.878906 54.242188 24.910156 54.191406 24.925781 C 54.148438 24.941406 54.109375 24.953125 54.070312 24.96875 C 54.019531 24.984375 53.953125 25.007812 53.902344 25.023438 C 53.859375 25.039062 53.820312 25.050781 53.777344 25.066406 C 53.726562 25.082031 53.664062 25.105469 53.617188 25.121094 C 53.574219 25.136719 53.488281 25.167969 53.488281 25.167969 L 53.324219 25.222656 L 53.203125 25.269531 L 53.035156 25.328125 L 52.917969 25.371094 L 52.730469 25.4375 L 52.632812 25.472656 L 52.351562 25.582031 L 52.324219 25.59375 L 52.070312 25.691406 L 51.980469 25.726562 L 51.789062 25.800781 L 51.683594 25.839844 L 51.503906 25.914062 L 51.398438 25.957031 L 51.21875 26.03125 L 51.121094 26.070312 L 50.929688 26.148438 L 50.839844 26.1875 L 50.625 26.28125 L 50.5625 26.304688 L 50.285156 26.429688 L 49.996094 26.554688 L 49.972656 26.5625 L 49.71875 26.679688 L 49.664062 26.703125 L 49.4375 26.808594 L 49.378906 26.835938 L 49.152344 26.941406 L 49.097656 26.964844 L 48.863281 27.078125 L 48.824219 27.097656 L 48.550781 27.226562 C 33.230469 34.707031 22.667969 50.441406 22.667969 68.625 C 22.667969 86.824219 33.25 102.570312 48.59375 110.042969 L 48.867188 110.175781 L 48.890625 110.1875 L 49.144531 110.308594 L 49.175781 110.324219 L 49.433594 110.441406 L 49.457031 110.453125 L 49.738281 110.582031 C 49.835938 110.628906 49.933594 110.671875 50.027344 110.714844 L 50.308594 110.835938 L 50.363281 110.859375 L 50.585938 110.957031 L 50.671875 110.992188 L 50.859375 111.074219 L 50.960938 111.117188 L 51.140625 111.1875 L 51.246094 111.234375 L 51.417969 111.304688 L 51.527344 111.347656 L 51.703125 111.417969 L 51.808594 111.460938 L 52.015625 111.542969 L 52.097656 111.574219 L 52.367188 111.675781 L 52.488281 111.722656 L 52.644531 111.78125 L 52.78125 111.832031 L 52.925781 111.886719 L 53.070312 111.9375 L 53.210938 111.988281 L 53.355469 112.039062 L 53.492188 112.085938 L 53.640625 112.140625 L 53.777344 112.1875 L 53.925781 112.238281 L 54.058594 112.28125 L 54.210938 112.335938 L 54.484375 112.421875 L 54.640625 112.472656 L 54.765625 112.515625 L 54.925781 112.5625 L 55.054688 112.605469 L 55.210938 112.652344 L 55.34375 112.691406 L 55.5 112.738281 L 55.632812 112.777344 L 55.789062 112.824219 L 55.921875 112.863281 L 56.082031 112.910156 L 56.210938 112.945312 L 56.371094 112.992188 L 56.5 113.027344 L 56.65625 113.070312 L 56.808594 113.109375 L 56.9375 113.144531 L 57.097656 113.1875 L 57.234375 113.222656 L 57.390625 113.261719 L 57.527344 113.296875 L 57.824219 113.371094 L 57.980469 113.40625 L 58.121094 113.441406 L 58.277344 113.476562 L 58.421875 113.511719 L 58.574219 113.542969 L 58.730469 113.578125 L 58.871094 113.609375 L 59.15625 113.671875 L 59.292969 113.699219 L 59.457031 113.734375 L 59.597656 113.761719 L 59.757812 113.792969 L 59.902344 113.824219 L 60.058594 113.851562 L 60.207031 113.878906 L 60.363281 113.910156 L 60.507812 113.933594 L 60.675781 113.964844 L 60.8125 113.992188 L 60.992188 114.019531 L 61.117188 114.042969 L 61.414062 114.089844 L 61.503906 114.105469 L 61.71875 114.136719 L 61.84375 114.15625 L 62.023438 114.183594 L 62.160156 114.203125 L 62.335938 114.226562 L 62.46875 114.246094 L 62.644531 114.269531 L 62.78125 114.285156 L 62.957031 114.308594 L 63.089844 114.324219 L 63.28125 114.347656 L 63.398438 114.363281 L 63.644531 114.390625 L 63.707031 114.394531 L 64.015625 114.429688 L 64.117188 114.4375 L 64.328125 114.460938 L 64.449219 114.46875 L 64.640625 114.488281 L 64.769531 114.5 L 64.957031 114.515625 L 65.085938 114.523438 L 65.273438 114.539062 L 65.402344 114.546875 L 65.597656 114.5625 L 65.71875 114.570312 L 65.945312 114.582031 L 66.03125 114.589844 L 66.34375 114.605469 L 66.414062 114.609375 L 66.660156 114.621094 L 66.777344 114.625 L 66.980469 114.632812 L 67.105469 114.636719 L 67.296875 114.644531 L 67.429688 114.648438 L 67.617188 114.652344 L 67.746094 114.65625 L 67.945312 114.65625 L 68.066406 114.660156 L 68.28125 114.664062 L 68.707031 114.664062 C 68.707031 114.664062 69 114.664062 69 114.664062 L 69.078125 114.664062 L 69.351562 114.660156 L 69.378906 114.660156 L 69.671875 114.65625 L 69.746094 114.652344 L 70.003906 114.648438 L 70.050781 114.644531 L 70.339844 114.636719 L 70.414062 114.632812 L 70.660156 114.625 L 70.714844 114.621094 L 71.007812 114.609375 L 71.074219 114.605469 L 71.320312 114.589844 L 71.382812 114.589844 L 71.671875 114.570312 L 71.730469 114.566406 L 71.976562 114.550781 L 72.042969 114.546875 L 72.335938 114.523438 L 72.378906 114.519531 L 72.636719 114.5 L 72.703125 114.492188 L 72.996094 114.46875 L 73.019531 114.464844 L 73.289062 114.4375 L 73.355469 114.433594 L 73.652344 114.402344 L 73.945312 114.371094 L 74.007812 114.363281 L 74.300781 114.328125 L 74.597656 114.289062 L 74.652344 114.285156 L 74.949219 114.246094 L 75.25 114.203125 L 75.296875 114.195312 L 75.578125 114.15625 L 75.59375 114.152344 L 75.898438 114.105469 L 75.933594 114.101562 L 76.21875 114.054688 L 76.234375 114.050781 L 76.542969 114 L 76.5625 113.996094 L 76.855469 113.945312 L 76.875 113.941406 L 77.492188 113.824219 L 77.507812 113.824219 L 77.820312 113.761719 L 78.128906 113.699219 L 78.136719 113.695312 L 78.761719 113.5625 C 82.207031 112.792969 85.511719 111.636719 88.617188 110.140625 C 90.675781 109.152344 92.648438 108.015625 94.523438 106.742188 C 94.738281 106.59375 94.992188 106.515625 95.253906 106.515625 C 97.167969 106.515625 105.425781 106.515625 109.910156 106.515625 C 110.429688 106.515625 110.898438 106.824219 111.105469 107.300781 C 111.3125 107.777344 111.214844 108.332031 110.859375 108.710938 C 109.019531 110.65625 107.046875 112.472656 104.953125 114.148438 C 104.953125 114.148438 106.375 118.425781 107.386719 121.46875 C 107.988281 123.269531 107.296875 125.25 105.707031 126.285156 C 103.792969 127.511719 101.824219 128.648438 99.800781 129.6875 C 98.109375 130.542969 96.058594 130.152344 94.796875 128.738281 C 92.664062 126.34375 89.671875 122.972656 89.671875 122.972656 C 88.644531 123.371094 87.605469 123.746094 86.558594 124.085938 C 86.324219 124.210938 86.074219 124.316406 85.816406 124.398438 C 83.105469 125.222656 80.335938 125.855469 77.527344 126.285156 C 77.527344 126.285156 76.621094 130.699219 75.96875 133.839844 C 75.589844 135.699219 74.003906 137.0625 72.113281 137.164062 C 70.941406 137.222656 69.765625 137.25 68.59375 137.25 C 67.421875 137.25 66.246094 137.222656 65.074219 137.164062 C 63.183594 137.0625 61.597656 135.699219 61.21875 133.839844 C 60.566406 130.699219 59.660156 126.285156 59.660156 126.285156 C 56.851562 125.855469 54.085938 125.222656 51.371094 124.398438 C 51.113281 124.316406 50.863281 124.210938 50.632812 124.085938 C 49.582031 123.746094 48.546875 123.371094 47.515625 122.972656 C 47.515625 122.972656 44.523438 126.34375 42.390625 128.738281 C 41.132812 130.152344 39.078125 130.542969 37.386719 129.6875 C 35.363281 128.648438 33.394531 127.511719 31.480469 126.285156 C 29.890625 125.25 29.199219 123.269531 29.800781 121.46875 C 30.8125 118.425781 32.234375 114.148438 32.234375 114.148438 C 28.894531 111.472656 25.859375 108.4375 23.183594 105.097656 C 23.183594 105.097656 18.90625 106.519531 15.859375 107.527344 C 14.0625 108.125 12.085938 107.433594 11.054688 105.847656 C 9.820312 103.9375 8.683594 101.96875 7.636719 99.945312 C 6.78125 98.253906 7.171875 96.199219 8.589844 94.9375 C 10.988281 92.808594 14.359375 89.816406 14.359375 89.816406 C 12.804688 85.828125 11.695312 81.679688 11.046875 77.449219 C 11.046875 77.449219 6.628906 76.542969 3.488281 75.890625 C 1.632812 75.511719 0.269531 73.925781 0.167969 72.035156 C 0.0546875 69.765625 0.0546875 67.488281 0.160156 65.21875 C 0.261719 63.324219 1.628906 61.738281 3.488281 61.355469 C 6.628906 60.710938 11.046875 59.804688 11.046875 59.804688 C 11.695312 55.574219 12.804688 51.425781 14.359375 47.4375 C 14.359375 47.4375 10.988281 44.445312 8.59375 42.3125 C 7.179688 41.050781 6.785156 39 7.644531 37.308594 C 8.683594 35.285156 9.820312 33.316406 11.046875 31.402344 C 12.082031 29.8125 14.0625 29.125 15.859375 29.722656 C 18.90625 30.734375 23.183594 32.15625 23.183594 32.15625 C 25.859375 28.816406 28.894531 25.78125 32.234375 23.105469 C 32.234375 23.105469 30.8125 18.828125 29.804688 15.78125 C 29.207031 13.984375 29.898438 12.007812 31.484375 10.976562 C 33.394531 9.742188 35.363281 8.605469 37.386719 7.558594 C 39.078125 6.703125 41.132812 7.09375 42.394531 8.511719 C 43.417969 9.667969 44.644531 11.046875 45.644531 12.164062 C 46.761719 13.421875 48.519531 13.882812 50.109375 13.339844 C 50.296875 13.277344 50.480469 13.214844 50.667969 13.15625 C 50.890625 13.039062 51.125 12.941406 51.375 12.863281 C 53.472656 12.21875 55.609375 11.691406 57.769531 11.289062 C 58.703125 10.957031 59.476562 10.304688 59.96875 9.460938 L 61.210938 3.410156 C 61.59375 1.550781 63.179688 0.183594 65.074219 0.0820312 C 66.246094 0.0273438 67.421875 0 68.59375 0.00390625 C 69.765625 0 70.941406 0.0273438 72.113281 0.0820312 C 74.007812 0.183594 75.59375 1.550781 75.976562 3.410156 L 77.21875 9.460938 C 77.707031 10.304688 78.484375 10.957031 79.417969 11.289062 C 81.578125 11.691406 83.714844 12.21875 85.816406 12.863281 C 86.0625 12.941406 86.296875 13.039062 86.523438 13.15625 C 86.707031 13.214844 86.894531 13.277344 87.078125 13.339844 C 88.667969 13.882812 90.425781 13.421875 91.542969 12.164062 C 92.542969 11.046875 93.769531 9.667969 94.792969 8.511719 C 96.054688 7.09375 98.113281 6.703125 99.804688 7.558594 C 101.824219 8.605469 103.792969 9.742188 105.703125 10.976562 C 107.292969 12.007812 107.980469 13.984375 107.382812 15.78125 C 106.375 18.828125 104.953125 23.105469 104.953125 23.105469 C 107.046875 24.78125 109.019531 26.597656 110.859375 28.542969 C 111.214844 28.921875 111.308594 29.476562 111.101562 29.953125 C 110.898438 30.429688 110.425781 30.738281 109.910156 30.738281 C 105.425781 30.738281 97.167969 30.738281 95.253906 30.738281 C 94.992188 30.738281 94.738281 30.65625 94.523438 30.511719 C 92.660156 29.246094 90.703125 28.117188 88.65625 27.128906 C 88.46875 27.039062 88.28125 26.949219 88.09375 26.863281 L 88.089844 26.859375 L 87.804688 26.730469 L 87.535156 26.609375 L 87.507812 26.597656 L 87.230469 26.472656 L 86.964844 26.355469 L 86.921875 26.339844 L 86.652344 26.222656 L 86.390625 26.113281 L 86.335938 26.089844 L 86.070312 25.980469 L 85.808594 25.875 L 85.746094 25.847656 L 85.492188 25.75 L 85.480469 25.746094 L 85.21875 25.644531 L 85.148438 25.617188 L 84.921875 25.53125 L 84.882812 25.515625 L 84.625 25.417969 L 84.550781 25.390625 L 84.339844 25.316406 L 84.28125 25.292969 L 84.027344 25.203125 L 83.953125 25.175781 L 83.746094 25.105469 L 83.679688 25.082031 L 83.425781 24.996094 L 83.347656 24.96875 L 83.148438 24.902344 L 83.074219 24.878906 L 82.816406 24.796875 L 82.742188 24.769531 L 82.542969 24.707031 L 82.460938 24.683594 L 82.207031 24.601562 L 82.136719 24.582031 L 81.933594 24.519531 L 81.847656 24.492188 L 81.59375 24.417969 L 81.527344 24.398438 L 81.320312 24.339844 L 81.230469 24.316406 L 80.972656 24.242188 L 80.921875 24.230469 L 80.699219 24.167969 L 80.609375 24.144531 L 80.375 24.082031 L 80.34375 24.074219 L 80.316406 24.066406 L 80.078125 24.007812 L 79.988281 23.984375 L 79.765625 23.929688 L 79.714844 23.914062 L 79.449219 23.851562 L 79.363281 23.832031 L 79.144531 23.777344 L 79.082031 23.765625 L 78.820312 23.703125 L 78.734375 23.683594 L 78.519531 23.636719 L 78.449219 23.625 L 78.183594 23.566406 L 77.890625 23.507812 L 77.816406 23.492188 L 77.546875 23.4375 L 77.472656 23.421875 L 77.253906 23.382812 L 77.179688 23.367188 L 76.90625 23.316406 L 76.839844 23.304688 L 76.617188 23.265625 L 76.539062 23.253906 L 76.261719 23.207031 L 76.207031 23.199219 L 75.972656 23.160156 L 75.894531 23.148438 L 75.617188 23.105469 L 75.574219 23.097656 L 75.246094 23.050781 L 74.964844 23.011719 L 74.945312 23.007812 L 74.679688 22.972656 L 74.597656 22.964844 L 74.332031 22.929688 L 74.3125 22.925781 L 74.023438 22.890625 L 73.949219 22.882812 L 73.695312 22.855469 L 73.65625 22.851562 L 73.371094 22.820312 L 73.292969 22.8125 L 73.046875 22.789062 L 72.996094 22.785156 L 72.710938 22.761719 L 72.640625 22.753906 L 72.398438 22.734375 L 72.335938 22.730469 L 72.050781 22.707031 L 71.984375 22.703125 L 71.742188 22.6875 L 71.675781 22.683594 L 71.386719 22.664062 L 71.324219 22.660156 L 71.082031 22.648438 L 71.011719 22.644531 L 70.71875 22.632812 L 70.664062 22.628906 L 70.417969 22.621094 L 70.34375 22.617188 L 70.050781 22.605469 L 70.007812 22.605469 L 69.75 22.597656 L 69.675781 22.597656 L 69.378906 22.59375 L 69.355469 22.59375 L 69.078125 22.589844 L 69.003906 22.589844 L 68.707031 22.585938 Z M 68.386719 22.589844 " fill-opacity="1" fill-rule="evenodd"/></g><g fill="#000000" fill-opacity="1"><g transform="translate(239.096355, 104.153381)"><g><path d="M 2.09375 0 L 10.84375 0 L 10.84375 -1.71875 L 3.890625 -1.71875 L 3.890625 -14.3125 L 2.09375 -14.3125 Z M 2.09375 0 "/></g></g></g><g fill="#000000" fill-opacity="1"><g transform="translate(257.114647, 104.153381)"><g><path d="M 2.09375 0 L 3.890625 0 L 3.890625 -14.3125 L 2.09375 -14.3125 Z M 2.09375 0 "/></g></g></g><g fill="#000000" fill-opacity="1"><g transform="translate(269.63212, 104.153381)"><g><path d="M 2.09375 0 L 3.890625 0 L 3.890625 -10.96875 L 8.625 -3.796875 L 10.109375 -3.796875 L 14.84375 -10.9375 L 14.84375 0 L 16.65625 0 L 16.65625 -14.3125 L 14.96875 -14.3125 L 9.390625 -5.828125 L 3.765625 -14.3125 L 2.09375 -14.3125 Z M 2.09375 0 "/></g></g></g><g fill="#000000" fill-opacity="1"><g transform="translate(294.909869, 104.153381)"><g><path d="M 2.09375 0 L 3.890625 0 L 3.890625 -14.3125 L 2.09375 -14.3125 Z M 2.09375 0 "/></g></g></g><g fill="#000000" fill-opacity="1"><g transform="translate(307.427341, 104.153381)"><g><path d="M 5.546875 0 L 7.34375 0 L 7.34375 -12.59375 L 12.171875 -12.59375 L 12.171875 -14.3125 L 0.703125 -14.3125 L 0.703125 -12.59375 L 5.546875 -12.59375 Z M 5.546875 0 "/></g></g></g><g fill="#000000" fill-opacity="1"><g transform="translate(326.856621, 104.153381)"><g><path d="M 2.09375 0 L 11 0 L 11 -1.671875 L 3.890625 -1.671875 L 3.890625 -6.46875 L 10.265625 -6.46875 L 10.265625 -8.125 L 3.890625 -8.125 L 3.890625 -12.640625 L 10.78125 -12.640625 L 10.78125 -14.3125 L 2.09375 -14.3125 Z M 2.09375 0 "/></g></g></g><g fill="#000000" fill-opacity="1"><g transform="translate(345.733781, 104.153381)"><g><path d="M 2.09375 0 L 7.03125 0 C 11.4375 0 14.375 -2.921875 14.375 -7.15625 C 14.375 -11.390625 11.4375 -14.3125 7.03125 -14.3125 L 2.09375 -14.3125 Z M 3.890625 -1.71875 L 3.890625 -12.59375 L 6.953125 -12.59375 C 10.28125 -12.59375 12.53125 -10.40625 12.53125 -7.15625 C 12.53125 -3.90625 10.3125 -1.71875 7.03125 -1.71875 Z M 3.890625 -1.71875 "/></g></g></g><g fill="#d9d9d9" fill-opacity="1"><g transform="translate(33.274649, 81.76919)"><g><path d="M 3.3125 0 L 16.25 0 C 21.84375 0 25.625 -3.0625 25.625 -7.71875 C 25.625 -10.671875 24.09375 -13.03125 21.484375 -14.171875 C 23.578125 -15.390625 24.796875 -17.546875 24.796875 -20.15625 C 24.796875 -24.671875 21.21875 -27.546875 15.625 -27.546875 L 3.3125 -27.546875 Z M 9.484375 -4.953125 L 9.484375 -11.578125 L 15.3125 -11.578125 C 17.796875 -11.578125 19.203125 -10.34375 19.203125 -8.265625 C 19.203125 -6.171875 17.796875 -4.953125 15.3125 -4.953125 Z M 9.484375 -16.328125 L 9.484375 -22.59375 L 14.6875 -22.59375 C 17.078125 -22.59375 18.421875 -21.484375 18.421875 -19.484375 C 18.421875 -17.46875 17.078125 -16.328125 14.6875 -16.328125 Z M 9.484375 -16.328125 "/></g></g></g><g fill="#d9d9d9" fill-opacity="1"><g transform="translate(60.387886, 81.76919)"><g><path d="M 0.359375 0 L 7.046875 0 L 8.890625 -4.765625 L 19.84375 -4.765625 L 21.6875 0 L 28.375 0 L 17.4375 -27.546875 L 11.296875 -27.546875 Z M 10.515625 -9.6875 L 14.359375 -19.765625 L 18.265625 -9.6875 Z M 10.515625 -9.6875 "/></g></g></g><g fill="#d9d9d9" fill-opacity="1"><g transform="translate(89.114535, 81.76919)"><g><path d="M 14.5625 0.546875 C 21.71875 0.546875 26.09375 -3.9375 26.09375 -11.328125 L 26.09375 -27.546875 L 19.84375 -27.546875 L 19.84375 -11.765625 C 19.84375 -7.5625 18.0625 -5.390625 14.5625 -5.390625 C 11.0625 -5.390625 9.28125 -7.5625 9.28125 -11.765625 L 9.28125 -27.546875 L 3.03125 -27.546875 L 3.03125 -11.328125 C 3.03125 -3.9375 7.40625 0.546875 14.5625 0.546875 Z M 14.5625 0.546875 "/></g></g></g><g fill="#d9d9d9" fill-opacity="1"><g transform="translate(118.2347, 81.76919)"><g/></g></g><g fill="#9f7803" fill-opacity="1"><g transform="translate(127.493393, 81.76919)"><g><path d="M 12.90625 0.546875 C 19.4375 0.546875 23.453125 -2.5625 23.453125 -7.75 C 23.453125 -12.125 20.578125 -14.71875 13.734375 -16.328125 C 9.53125 -17.3125 8.0625 -18.375 8.0625 -20.078125 C 8.0625 -21.890625 9.6875 -22.984375 12.3125 -22.984375 C 15.1875 -22.984375 16.921875 -21.484375 16.921875 -19.015625 L 22.953125 -19.015625 C 22.953125 -24.5625 18.78125 -28.109375 12.234375 -28.109375 C 5.90625 -28.109375 1.96875 -25 1.96875 -19.953125 C 1.96875 -15.46875 5 -12.796875 11.453125 -11.421875 C 15.34375 -10.59375 17.125 -9.453125 17.125 -7.515625 C 17.125 -5.671875 15.46875 -4.609375 12.875 -4.609375 C 9.84375 -4.609375 7.875 -6.140625 7.875 -8.78125 L 1.734375 -8.78125 C 1.734375 -3.0625 5.984375 0.546875 12.90625 0.546875 Z M 12.90625 0.546875 "/></g></g></g><g fill="#9f7803" fill-opacity="1"><g transform="translate(152.71776, 81.76919)"><g><path d="M 16.375 0.546875 C 25 0.546875 31.09375 -5.359375 31.09375 -13.78125 C 31.09375 -22.203125 25 -28.109375 16.375 -28.109375 C 7.75 -28.109375 1.6875 -22.203125 1.6875 -13.78125 C 1.6875 -5.359375 7.75 0.546875 16.375 0.546875 Z M 8.0625 -13.78125 C 8.0625 -18.734375 11.5 -22.15625 16.375 -22.15625 C 21.296875 -22.15625 24.671875 -18.734375 24.671875 -13.78125 C 24.671875 -8.8125 21.296875 -5.390625 16.375 -5.390625 C 11.5 -5.390625 8.0625 -8.8125 8.0625 -13.78125 Z M 8.0625 -13.78125 "/></g></g></g><g fill="#9f7803" fill-opacity="1"><g transform="translate(185.497631, 81.76919)"><g><path d="M 3.3125 0 L 21.609375 0 L 21.609375 -5.859375 L 9.5625 -5.859375 L 9.5625 -27.546875 L 3.3125 -27.546875 Z M 3.3125 0 "/></g></g></g><g fill="#9f7803" fill-opacity="1"><g transform="translate(208.164141, 81.76919)"><g><path d="M 14.5625 0.546875 C 21.71875 0.546875 26.09375 -3.9375 26.09375 -11.328125 L 26.09375 -27.546875 L 19.84375 -27.546875 L 19.84375 -11.765625 C 19.84375 -7.5625 18.0625 -5.390625 14.5625 -5.390625 C 11.0625 -5.390625 9.28125 -7.5625 9.28125 -11.765625 L 9.28125 -27.546875 L 3.03125 -27.546875 L 3.03125 -11.328125 C 3.03125 -3.9375 7.40625 0.546875 14.5625 0.546875 Z M 14.5625 0.546875 "/></g></g></g><g fill="#9f7803" fill-opacity="1"><g transform="translate(237.284306, 81.76919)"><g><path d="M 9.921875 0 L 16.171875 0 L 16.171875 -21.6875 L 24.921875 -21.6875 L 24.921875 -27.546875 L 1.1875 -27.546875 L 1.1875 -21.6875 L 9.921875 -21.6875 Z M 9.921875 0 "/></g></g></g><g fill="#9f7803" fill-opacity="1"><g transform="translate(263.374408, 81.76919)"><g><path d="M 3.3125 0 L 9.5625 0 L 9.5625 -27.546875 L 3.3125 -27.546875 Z M 3.3125 0 "/></g></g></g><g fill="#9f7803" fill-opacity="1"><g transform="translate(276.242373, 81.76919)"><g><path d="M 16.375 0.546875 C 25 0.546875 31.09375 -5.359375 31.09375 -13.78125 C 31.09375 -22.203125 25 -28.109375 16.375 -28.109375 C 7.75 -28.109375 1.6875 -22.203125 1.6875 -13.78125 C 1.6875 -5.359375 7.75 0.546875 16.375 0.546875 Z M 8.0625 -13.78125 C 8.0625 -18.734375 11.5 -22.15625 16.375 -22.15625 C 21.296875 -22.15625 24.671875 -18.734375 24.671875 -13.78125 C 24.671875 -8.8125 21.296875 -5.390625 16.375 -5.390625 C 11.5 -5.390625 8.0625 -8.8125 8.0625 -13.78125 Z M 8.0625 -13.78125 "/></g></g></g><g fill="#9f7803" fill-opacity="1"><g transform="translate(309.022244, 81.76919)"><g><path d="M 3.3125 0 L 9.53125 0 L 9.53125 -16.890625 L 21.6875 0 L 27 0 L 27 -27.546875 L 20.78125 -27.546875 L 20.78125 -10.78125 L 8.625 -27.546875 L 3.3125 -27.546875 Z M 3.3125 0 "/></g></g></g><g fill="#9f7803" fill-opacity="1"><g transform="translate(339.322969, 81.76919)"><g><path d="M 12.90625 0.546875 C 19.4375 0.546875 23.453125 -2.5625 23.453125 -7.75 C 23.453125 -12.125 20.578125 -14.71875 13.734375 -16.328125 C 9.53125 -17.3125 8.0625 -18.375 8.0625 -20.078125 C 8.0625 -21.890625 9.6875 -22.984375 12.3125 -22.984375 C 15.1875 -22.984375 16.921875 -21.484375 16.921875 -19.015625 L 22.953125 -19.015625 C 22.953125 -24.5625 18.78125 -28.109375 12.234375 -28.109375 C 5.90625 -28.109375 1.96875 -25 1.96875 -19.953125 C 1.96875 -15.46875 5 -12.796875 11.453125 -11.421875 C 15.34375 -10.59375 17.125 -9.453125 17.125 -7.515625 C 17.125 -5.671875 15.46875 -4.609375 12.875 -4.609375 C 9.84375 -4.609375 7.875 -6.140625 7.875 -8.78125 L 1.734375 -8.78125 C 1.734375 -3.0625 5.984375 0.546875 12.90625 0.546875 Z M 12.90625 0.546875 "/></g></g></g></svg>
